<svg xmlns="http://www.w3.org/2000/svg" width="1600" height="1220" viewBox="0 0 1600 1220">
<rect width="100%" height="100%" fill="#ffffff" />
<text x="100" y="70" font-size="34" font-family="Helvetica, Arial, sans-serif" fill="#101828" font-weight="700">EV Adoption, Charging Buildout, and Consumer Interest Across Four Markets</text>
<text x="100" y="108" font-size="18" font-family="Helvetica, Arial, sans-serif" fill="#667085">Monthly trends for France, India, the Netherlands, and the United Kingdom, using the merged market file described in the dataset README.</text>
<text x="100" y="142" font-size="14" font-family="Helvetica, Arial, sans-serif" fill="#667085">Blue = indexed EV sales (2019-01 = 100), orange = indexed public chargers (2019-01 = 100), green dashed = Google Trends score for "electric vehicle" (0-100).</text>
<line x1="100" y1="170" x2="150" y2="170" stroke="#1f4e79" stroke-width="5" />
<text x="162" y="176" font-size="16" font-family="Helvetica, Arial, sans-serif" fill="#101828">Indexed EV sales</text>
<line x1="460" y1="170" x2="510" y2="170" stroke="#d97706" stroke-width="5" />
<text x="522" y="176" font-size="16" font-family="Helvetica, Arial, sans-serif" fill="#101828">Indexed charging infrastructure</text>
<line x1="820" y1="170" x2="870" y2="170" stroke="#2b8a3e" stroke-width="5" stroke-dasharray="10 8" />
<text x="882" y="176" font-size="16" font-family="Helvetica, Arial, sans-serif" fill="#101828">Search interest: &quot;electric vehicle&quot;</text>
<rect x="100" y="220" width="680" height="360" rx="18" fill="#f8fafc" stroke="#e4e7ec" />
<text x="124" y="244" font-size="24" font-family="Helvetica, Arial, sans-serif" fill="#101828" font-weight="700">France</text>
<line x1="158" y1="256.0" x2="760" y2="256.0" stroke="#d9dde3" stroke-width="1" />
<text x="148" y="261.0" text-anchor="end" font-size="13" font-family="Helvetica, Arial, sans-serif" fill="#667085">800</text>
<text x="768" y="261.0" font-size="13" font-family="Helvetica, Arial, sans-serif" fill="#667085">100</text>
<line x1="158" y1="322.5" x2="760" y2="322.5" stroke="#d9dde3" stroke-width="1" />
<text x="148" y="327.5" text-anchor="end" font-size="13" font-family="Helvetica, Arial, sans-serif" fill="#667085">600</text>
<text x="768" y="327.5" font-size="13" font-family="Helvetica, Arial, sans-serif" fill="#667085">75.0</text>
<line x1="158" y1="389.0" x2="760" y2="389.0" stroke="#d9dde3" stroke-width="1" />
<text x="148" y="394.0" text-anchor="end" font-size="13" font-family="Helvetica, Arial, sans-serif" fill="#667085">400</text>
<text x="768" y="394.0" font-size="13" font-family="Helvetica, Arial, sans-serif" fill="#667085">50.0</text>
<line x1="158" y1="455.5" x2="760" y2="455.5" stroke="#d9dde3" stroke-width="1" />
<text x="148" y="460.5" text-anchor="end" font-size="13" font-family="Helvetica, Arial, sans-serif" fill="#667085">200</text>
<text x="768" y="460.5" font-size="13" font-family="Helvetica, Arial, sans-serif" fill="#667085">25.0</text>
<line x1="158" y1="522.0" x2="760" y2="522.0" stroke="#d9dde3" stroke-width="1" />
<text x="148" y="527.0" text-anchor="end" font-size="13" font-family="Helvetica, Arial, sans-serif" fill="#667085">0.00</text>
<text x="768" y="527.0" font-size="13" font-family="Helvetica, Arial, sans-serif" fill="#667085">0.00</text>
<line x1="158.0" y1="256" x2="158.0" y2="522" stroke="#eef2f6" stroke-width="1" />
<text x="158.0" y="546" text-anchor="middle" font-size="13" font-family="Helvetica, Arial, sans-serif" fill="#667085">2019</text>
<line x1="280.4" y1="256" x2="280.4" y2="522" stroke="#eef2f6" stroke-width="1" />
<text x="280.4" y="546" text-anchor="middle" font-size="13" font-family="Helvetica, Arial, sans-serif" fill="#667085">2020</text>
<line x1="402.9" y1="256" x2="402.9" y2="522" stroke="#eef2f6" stroke-width="1" />
<text x="402.9" y="546" text-anchor="middle" font-size="13" font-family="Helvetica, Arial, sans-serif" fill="#667085">2021</text>
<line x1="525.3" y1="256" x2="525.3" y2="522" stroke="#eef2f6" stroke-width="1" />
<text x="525.3" y="546" text-anchor="middle" font-size="13" font-family="Helvetica, Arial, sans-serif" fill="#667085">2022</text>
<line x1="647.8" y1="256" x2="647.8" y2="522" stroke="#eef2f6" stroke-width="1" />
<text x="647.8" y="546" text-anchor="middle" font-size="13" font-family="Helvetica, Arial, sans-serif" fill="#667085">2023</text>
<polyline fill="none" stroke="#d97706" stroke-width="4" stroke-linejoin="round" stroke-linecap="round" points="158.0,488.8 168.2,488.8 178.4,488.8 188.6,488.8 198.8,488.8 209.0,488.8 219.2,488.8 229.4,488.8 239.6,488.8 249.8,488.8 260.0,488.8 270.2,488.8 280.4,474.3 290.6,474.3 300.8,474.3 311.1,474.3 321.3,474.3 331.5,474.3 341.7,474.3 351.9,474.3 362.1,474.3 372.3,474.3 382.5,474.3 392.7,474.3 402.9,452.0 413.1,452.0 423.3,452.0 433.5,452.0 443.7,452.0 453.9,452.0 464.1,452.0 474.3,452.0 484.5,452.0 494.7,452.0 504.9,452.0 515.1,452.0 525.3,424.8 535.5,424.8 545.7,424.8 555.9,424.8 566.1,424.8 576.3,424.8 586.5,424.8 596.7,424.8 606.9,424.8 617.2,424.8 627.4,424.8 637.6,424.8 647.8,382.7 658.0,382.7 668.2,382.7 678.4,382.7 688.6,382.7 698.8,382.7 709.0,382.7 719.2,382.7 729.4,382.7 739.6,382.7 749.8,382.7 760.0,382.7" />
<polyline fill="none" stroke="#1f4e79" stroke-width="5" stroke-linejoin="round" stroke-linecap="round" points="158.0,488.8 168.2,488.8 178.4,488.8 188.6,488.8 198.8,488.8 209.0,488.8 219.2,488.8 229.4,488.8 239.6,488.8 249.8,488.8 260.0,488.8 270.2,488.8 280.4,421.8 290.6,421.8 300.8,421.8 311.1,421.8 321.3,421.8 331.5,421.8 341.7,421.8 351.9,421.8 362.1,421.8 372.3,421.8 382.5,421.8 392.7,421.8 402.9,361.7 413.1,361.7 423.3,361.7 433.5,361.7 443.7,361.7 453.9,361.7 464.1,361.7 474.3,361.7 484.5,361.7 494.7,361.7 504.9,361.7 515.1,361.7 525.3,321.7 535.5,321.7 545.7,321.7 555.9,321.7 566.1,321.7 576.3,321.7 586.5,321.7 596.7,321.7 606.9,321.7 617.2,321.7 627.4,321.7 637.6,321.7 647.8,264.9 658.0,264.9 668.2,264.9 678.4,264.9 688.6,264.9 698.8,264.9 709.0,264.9 719.2,264.9 729.4,264.9 739.6,264.9 749.8,264.9 760.0,264.9" />
<polyline fill="none" stroke="#2b8a3e" stroke-width="4" stroke-linejoin="round" stroke-linecap="round" stroke-dasharray="10 8" points="158.0,480.8 168.2,458.2 178.4,468.8 188.6,471.5 198.8,464.8 209.0,444.9 219.2,475.4 229.4,331.1 239.6,449.6 249.8,483.4 260.0,372.4 270.2,463.9 280.4,405.6 290.6,381.7 300.8,434.2 311.1,466.1 321.3,393.3 331.5,474.8 341.7,522.0 351.9,474.1 362.1,484.8 372.3,483.4 382.5,350.2 392.7,453.4 402.9,478.4 413.1,488.8 423.3,452.2 433.5,522.0 443.7,476.2 453.9,482.8 464.1,490.7 474.3,496.5 484.5,428.2 494.7,458.7 504.9,416.3 515.1,522.0 525.3,451.8 535.5,390.3 545.7,313.2 555.9,324.5 566.1,342.7 576.3,385.7 586.5,448.1 596.7,439.5 606.9,427.6 617.2,411.3 627.4,364.4 637.6,490.1 647.8,435.8 658.0,416.3 668.2,434.2 678.4,356.0 688.6,393.0 698.8,358.4 709.0,369.3 719.2,417.6 729.4,375.0 739.6,356.5 749.8,334.5 760.0,406.7" />
<circle cx="760.0" cy="264.9" r="4.5" fill="#1f4e79" />
<circle cx="760.0" cy="382.7" r="4.5" fill="#d97706" />
<circle cx="760.0" cy="406.7" r="4.5" fill="#2b8a3e" />
<text x="158" y="272" font-size="13" font-family="Helvetica, Arial, sans-serif" fill="#667085">Left axis: indexed sales/chargers</text>
<text x="755" y="248" text-anchor="end" font-size="13" font-family="Helvetica, Arial, sans-serif" fill="#667085">Right axis: Google Trends score</text>
<text x="124" y="568" font-size="12" font-family="Helvetica, Arial, sans-serif" fill="#667085">2019-01 sales 5,134 → 2023-12 sales 39,704; chargers 30,800 → 129,000</text>
<rect x="690.0" y="256.0" width="39.0" height="24" rx="8" fill="#ffffff" fill-opacity="0.92" stroke="#1f4e79" stroke-opacity="0.18" /><text x="698.0" y="273.0" text-anchor="start" font-size="12" font-family="Helvetica, Arial, sans-serif" font-weight="700" fill="#1f4e79">773</text>
<rect x="690.0" y="394.7" width="39.0" height="24" rx="8" fill="#ffffff" fill-opacity="0.92" stroke="#d97706" stroke-opacity="0.18" /><text x="698.0" y="411.7" text-anchor="start" font-size="12" font-family="Helvetica, Arial, sans-serif" font-weight="700" fill="#d97706">419</text>
<rect x="690.0" y="366.7" width="48.0" height="24" rx="8" fill="#ffffff" fill-opacity="0.92" stroke="#2b8a3e" stroke-opacity="0.18" /><text x="698.0" y="383.7" text-anchor="start" font-size="12" font-family="Helvetica, Arial, sans-serif" font-weight="700" fill="#2b8a3e">43.3</text>
<rect x="820" y="220" width="680" height="360" rx="18" fill="#f8fafc" stroke="#e4e7ec" />
<text x="844" y="244" font-size="24" font-family="Helvetica, Arial, sans-serif" fill="#101828" font-weight="700">India</text>
<line x1="878" y1="256.0" x2="1480" y2="256.0" stroke="#d9dde3" stroke-width="1" />
<text x="868" y="261.0" text-anchor="end" font-size="13" font-family="Helvetica, Arial, sans-serif" fill="#667085">2,500</text>
<text x="1488" y="261.0" font-size="13" font-family="Helvetica, Arial, sans-serif" fill="#667085">100</text>
<line x1="878" y1="322.5" x2="1480" y2="322.5" stroke="#d9dde3" stroke-width="1" />
<text x="868" y="327.5" text-anchor="end" font-size="13" font-family="Helvetica, Arial, sans-serif" fill="#667085">1,875</text>
<text x="1488" y="327.5" font-size="13" font-family="Helvetica, Arial, sans-serif" fill="#667085">75.0</text>
<line x1="878" y1="389.0" x2="1480" y2="389.0" stroke="#d9dde3" stroke-width="1" />
<text x="868" y="394.0" text-anchor="end" font-size="13" font-family="Helvetica, Arial, sans-serif" fill="#667085">1,250</text>
<text x="1488" y="394.0" font-size="13" font-family="Helvetica, Arial, sans-serif" fill="#667085">50.0</text>
<line x1="878" y1="455.5" x2="1480" y2="455.5" stroke="#d9dde3" stroke-width="1" />
<text x="868" y="460.5" text-anchor="end" font-size="13" font-family="Helvetica, Arial, sans-serif" fill="#667085">625</text>
<text x="1488" y="460.5" font-size="13" font-family="Helvetica, Arial, sans-serif" fill="#667085">25.0</text>
<line x1="878" y1="522.0" x2="1480" y2="522.0" stroke="#d9dde3" stroke-width="1" />
<text x="868" y="527.0" text-anchor="end" font-size="13" font-family="Helvetica, Arial, sans-serif" fill="#667085">0.00</text>
<text x="1488" y="527.0" font-size="13" font-family="Helvetica, Arial, sans-serif" fill="#667085">0.00</text>
<line x1="878.0" y1="256" x2="878.0" y2="522" stroke="#eef2f6" stroke-width="1" />
<text x="878.0" y="546" text-anchor="middle" font-size="13" font-family="Helvetica, Arial, sans-serif" fill="#667085">2019</text>
<line x1="1000.4" y1="256" x2="1000.4" y2="522" stroke="#eef2f6" stroke-width="1" />
<text x="1000.4" y="546" text-anchor="middle" font-size="13" font-family="Helvetica, Arial, sans-serif" fill="#667085">2020</text>
<line x1="1122.9" y1="256" x2="1122.9" y2="522" stroke="#eef2f6" stroke-width="1" />
<text x="1122.9" y="546" text-anchor="middle" font-size="13" font-family="Helvetica, Arial, sans-serif" fill="#667085">2021</text>
<line x1="1245.3" y1="256" x2="1245.3" y2="522" stroke="#eef2f6" stroke-width="1" />
<text x="1245.3" y="546" text-anchor="middle" font-size="13" font-family="Helvetica, Arial, sans-serif" fill="#667085">2022</text>
<line x1="1367.8" y1="256" x2="1367.8" y2="522" stroke="#eef2f6" stroke-width="1" />
<text x="1367.8" y="546" text-anchor="middle" font-size="13" font-family="Helvetica, Arial, sans-serif" fill="#667085">2023</text>
<polyline fill="none" stroke="#d97706" stroke-width="4" stroke-linejoin="round" stroke-linecap="round" points="1122.9,511.4 1133.1,511.4 1143.3,511.4 1153.5,511.4 1163.7,511.4 1173.9,511.4 1184.1,511.4 1194.3,511.4 1204.5,511.4 1214.7,511.4 1224.9,511.4 1235.1,511.4 1245.3,489.4 1255.5,489.4 1265.7,489.4 1275.9,489.4 1286.1,489.4 1296.3,489.4 1306.5,489.4 1316.7,489.4 1326.9,489.4 1337.2,489.4 1347.4,489.4 1357.6,489.4 1367.8,459.0 1378.0,459.0 1388.2,459.0 1398.4,459.0 1408.6,459.0 1418.8,459.0 1429.0,459.0 1439.2,459.0 1449.4,459.0 1459.6,459.0 1469.8,459.0 1480.0,459.0" />
<polyline fill="none" stroke="#1f4e79" stroke-width="5" stroke-linejoin="round" stroke-linecap="round" points="878.0,511.4 888.2,511.4 898.4,511.4 908.6,511.4 918.8,511.4 929.0,511.4 939.2,511.4 949.4,511.4 959.6,511.4 969.8,511.4 980.0,511.4 990.2,511.4 1000.4,508.0 1010.6,508.0 1020.8,508.0 1031.1,508.0 1041.3,508.0 1051.5,508.0 1061.7,508.0 1071.9,508.0 1082.1,508.0 1092.3,508.0 1102.5,508.0 1112.7,508.0 1122.9,485.0 1133.1,485.0 1143.3,485.0 1153.5,485.0 1163.7,485.0 1173.9,485.0 1184.1,485.0 1194.3,485.0 1204.5,485.0 1214.7,485.0 1224.9,485.0 1235.1,485.0 1245.3,386.8 1255.5,386.8 1265.7,386.8 1275.9,386.8 1286.1,386.8 1296.3,386.8 1306.5,386.8 1316.7,386.8 1326.9,386.8 1337.2,386.8 1347.4,386.8 1357.6,386.8 1367.8,268.3 1378.0,268.3 1388.2,268.3 1398.4,268.3 1408.6,268.3 1418.8,268.3 1429.0,268.3 1439.2,268.3 1449.4,268.3 1459.6,268.3 1469.8,268.3 1480.0,268.3" />
<polyline fill="none" stroke="#2b8a3e" stroke-width="4" stroke-linejoin="round" stroke-linecap="round" stroke-dasharray="10 8" points="878.0,459.5 888.2,458.8 898.4,457.6 908.6,464.1 918.8,464.8 929.0,439.5 939.2,392.3 949.4,414.3 959.6,410.8 969.8,380.4 980.0,420.3 990.2,394.3 1000.4,296.6 1010.6,297.9 1020.8,362.9 1031.1,389.7 1041.3,368.3 1051.5,369.1 1061.7,374.4 1071.9,327.8 1082.1,339.8 1092.3,326.5 1102.5,319.8 1112.7,319.3 1122.9,391.1 1133.1,346.4 1143.3,367.1 1153.5,410.9 1163.7,403.9 1173.9,351.1 1184.1,313.9 1194.3,333.7 1204.5,345.1 1214.7,344.8 1224.9,342.4 1235.1,351.2 1245.3,302.3 1255.5,282.6 1265.7,276.6 1275.9,299.2 1286.1,340.6 1296.3,360.4 1306.5,350.2 1316.7,354.4 1326.9,339.1 1337.2,333.1 1347.4,339.8 1357.6,350.4 1367.8,291.1 1378.0,279.3 1388.2,294.6 1398.4,314.5 1408.6,314.5 1418.8,307.9 1429.0,302.3 1439.2,305.2 1449.4,300.6 1459.6,325.7 1469.8,303.2 1480.0,277.7" />
<circle cx="1480.0" cy="268.3" r="4.5" fill="#1f4e79" />
<circle cx="1480.0" cy="459.0" r="4.5" fill="#d97706" />
<circle cx="1480.0" cy="277.7" r="4.5" fill="#2b8a3e" />
<text x="878" y="272" font-size="13" font-family="Helvetica, Arial, sans-serif" fill="#667085">Left axis: indexed sales/chargers</text>
<text x="1475" y="248" text-anchor="end" font-size="13" font-family="Helvetica, Arial, sans-serif" fill="#667085">Right axis: Google Trends score</text>
<text x="844" y="568" font-size="12" font-family="Helvetica, Arial, sans-serif" fill="#667085">2019-01 sales 316 → 2023-12 sales 7,536; chargers N/A → 14,100</text>
<rect x="1410.0" y="256.0" width="57.0" height="24" rx="8" fill="#ffffff" fill-opacity="0.92" stroke="#1f4e79" stroke-opacity="0.18" /><text x="1418.0" y="273.0" text-anchor="start" font-size="12" font-family="Helvetica, Arial, sans-serif" font-weight="700" fill="#1f4e79">2,385</text>
<rect x="1410.0" y="471.0" width="39.0" height="24" rx="8" fill="#ffffff" fill-opacity="0.92" stroke="#d97706" stroke-opacity="0.18" /><text x="1418.0" y="488.0" text-anchor="start" font-size="12" font-family="Helvetica, Arial, sans-serif" font-weight="700" fill="#d97706">592</text>
<rect x="1410.0" y="284.0" width="48.0" height="24" rx="8" fill="#ffffff" fill-opacity="0.92" stroke="#2b8a3e" stroke-opacity="0.18" /><text x="1418.0" y="301.0" text-anchor="start" font-size="12" font-family="Helvetica, Arial, sans-serif" font-weight="700" fill="#2b8a3e">91.8</text>
<rect x="100" y="650" width="680" height="360" rx="18" fill="#f8fafc" stroke="#e4e7ec" />
<text x="124" y="674" font-size="24" font-family="Helvetica, Arial, sans-serif" fill="#101828" font-weight="700">Netherlands</text>
<line x1="158" y1="686.0" x2="760" y2="686.0" stroke="#d9dde3" stroke-width="1" />
<text x="148" y="691.0" text-anchor="end" font-size="13" font-family="Helvetica, Arial, sans-serif" fill="#667085">300</text>
<text x="768" y="691.0" font-size="13" font-family="Helvetica, Arial, sans-serif" fill="#667085">100</text>
<line x1="158" y1="752.5" x2="760" y2="752.5" stroke="#d9dde3" stroke-width="1" />
<text x="148" y="757.5" text-anchor="end" font-size="13" font-family="Helvetica, Arial, sans-serif" fill="#667085">225</text>
<text x="768" y="757.5" font-size="13" font-family="Helvetica, Arial, sans-serif" fill="#667085">75.0</text>
<line x1="158" y1="819.0" x2="760" y2="819.0" stroke="#d9dde3" stroke-width="1" />
<text x="148" y="824.0" text-anchor="end" font-size="13" font-family="Helvetica, Arial, sans-serif" fill="#667085">150</text>
<text x="768" y="824.0" font-size="13" font-family="Helvetica, Arial, sans-serif" fill="#667085">50.0</text>
<line x1="158" y1="885.5" x2="760" y2="885.5" stroke="#d9dde3" stroke-width="1" />
<text x="148" y="890.5" text-anchor="end" font-size="13" font-family="Helvetica, Arial, sans-serif" fill="#667085">75.0</text>
<text x="768" y="890.5" font-size="13" font-family="Helvetica, Arial, sans-serif" fill="#667085">25.0</text>
<line x1="158" y1="952.0" x2="760" y2="952.0" stroke="#d9dde3" stroke-width="1" />
<text x="148" y="957.0" text-anchor="end" font-size="13" font-family="Helvetica, Arial, sans-serif" fill="#667085">0.00</text>
<text x="768" y="957.0" font-size="13" font-family="Helvetica, Arial, sans-serif" fill="#667085">0.00</text>
<line x1="158.0" y1="686" x2="158.0" y2="952" stroke="#eef2f6" stroke-width="1" />
<text x="158.0" y="976" text-anchor="middle" font-size="13" font-family="Helvetica, Arial, sans-serif" fill="#667085">2019</text>
<line x1="280.4" y1="686" x2="280.4" y2="952" stroke="#eef2f6" stroke-width="1" />
<text x="280.4" y="976" text-anchor="middle" font-size="13" font-family="Helvetica, Arial, sans-serif" fill="#667085">2020</text>
<line x1="402.9" y1="686" x2="402.9" y2="952" stroke="#eef2f6" stroke-width="1" />
<text x="402.9" y="976" text-anchor="middle" font-size="13" font-family="Helvetica, Arial, sans-serif" fill="#667085">2021</text>
<line x1="525.3" y1="686" x2="525.3" y2="952" stroke="#eef2f6" stroke-width="1" />
<text x="525.3" y="976" text-anchor="middle" font-size="13" font-family="Helvetica, Arial, sans-serif" fill="#667085">2022</text>
<line x1="647.8" y1="686" x2="647.8" y2="952" stroke="#eef2f6" stroke-width="1" />
<text x="647.8" y="976" text-anchor="middle" font-size="13" font-family="Helvetica, Arial, sans-serif" fill="#667085">2023</text>
<polyline fill="none" stroke="#d97706" stroke-width="4" stroke-linejoin="round" stroke-linecap="round" points="158.0,863.3 168.2,863.3 178.4,863.3 188.6,863.3 198.8,863.3 209.0,863.3 219.2,863.3 229.4,863.3 239.6,863.3 249.8,863.3 260.0,863.3 270.2,863.3 280.4,837.1 290.6,837.1 300.8,837.1 311.1,837.1 321.3,837.1 331.5,837.1 341.7,837.1 351.9,837.1 362.1,837.1 372.3,837.1 382.5,837.1 392.7,837.1 402.9,797.6 413.1,797.6 423.3,797.6 433.5,797.6 443.7,797.6 453.9,797.6 464.1,797.6 474.3,797.6 484.5,797.6 494.7,797.6 504.9,797.6 515.1,797.6 525.3,755.7 535.5,755.7 545.7,755.7 555.9,755.7 566.1,755.7 576.3,755.7 586.5,755.7 596.7,755.7 606.9,755.7 617.2,755.7 627.4,755.7 637.6,755.7 647.8,705.0 658.0,705.0 668.2,705.0 678.4,705.0 688.6,705.0 698.8,705.0 709.0,705.0 719.2,705.0 729.4,705.0 739.6,705.0 749.8,705.0 760.0,705.0" />
<polyline fill="none" stroke="#1f4e79" stroke-width="5" stroke-linejoin="round" stroke-linecap="round" points="158.0,863.3 168.2,863.3 178.4,863.3 188.6,863.3 198.8,863.3 209.0,863.3 219.2,863.3 229.4,863.3 239.6,863.3 249.8,863.3 260.0,863.3 270.2,863.3 280.4,877.5 290.6,877.5 300.8,877.5 311.1,877.5 321.3,877.5 331.5,877.5 341.7,877.5 351.9,877.5 362.1,877.5 372.3,877.5 382.5,877.5 392.7,877.5 402.9,830.8 413.1,830.8 423.3,830.8 433.5,830.8 443.7,830.8 453.9,830.8 464.1,830.8 474.3,830.8 484.5,830.8 494.7,830.8 504.9,830.8 515.1,830.8 525.3,879.7 535.5,879.7 545.7,879.7 555.9,879.7 566.1,879.7 576.3,879.7 586.5,879.7 596.7,879.7 606.9,879.7 617.2,879.7 627.4,879.7 637.6,879.7 647.8,844.3 658.0,844.3 668.2,844.3 678.4,844.3 688.6,844.3 698.8,844.3 709.0,844.3 719.2,844.3 729.4,844.3 739.6,844.3 749.8,844.3 760.0,844.3" />
<polyline fill="none" stroke="#2b8a3e" stroke-width="4" stroke-linejoin="round" stroke-linecap="round" stroke-dasharray="10 8" points="158.0,952.0 168.2,890.8 178.4,952.0 188.6,851.6 198.8,904.1 209.0,898.8 219.2,952.0 229.4,952.0 239.6,952.0 249.8,952.0 260.0,899.5 270.2,952.0 280.4,859.6 290.6,907.4 300.8,916.9 311.1,952.0 321.3,952.0 331.5,852.9 341.7,885.5 351.9,914.8 362.1,888.2 372.3,952.0 382.5,914.2 392.7,952.0 402.9,903.6 413.1,840.3 423.3,877.5 433.5,873.5 443.7,925.4 453.9,952.0 464.1,952.0 474.3,921.7 484.5,876.2 494.7,882.8 504.9,915.4 515.1,952.0 525.3,915.3 535.5,856.9 545.7,866.9 555.9,893.5 566.1,878.6 576.3,880.8 586.5,911.0 596.7,909.4 606.9,931.4 617.2,877.5 627.4,901.5 637.6,885.5 647.8,911.6 658.0,952.0 668.2,874.9 678.4,857.3 688.6,952.0 698.8,901.5 709.0,899.9 719.2,919.4 729.4,926.7 739.6,810.0 749.8,880.2 760.0,930.7" />
<circle cx="760.0" cy="844.3" r="4.5" fill="#1f4e79" />
<circle cx="760.0" cy="705.0" r="4.5" fill="#d97706" />
<circle cx="760.0" cy="930.7" r="4.5" fill="#2b8a3e" />
<text x="158" y="702" font-size="13" font-family="Helvetica, Arial, sans-serif" fill="#667085">Left axis: indexed sales/chargers</text>
<text x="755" y="678" text-anchor="end" font-size="13" font-family="Helvetica, Arial, sans-serif" fill="#667085">Right axis: Google Trends score</text>
<text x="124" y="998" font-size="12" font-family="Helvetica, Arial, sans-serif" fill="#667085">2019-01 sales 7,266 → 2023-12 sales 8,824; chargers 58,800 → 163,800</text>
<rect x="690.0" y="802.3" width="39.0" height="24" rx="8" fill="#ffffff" fill-opacity="0.92" stroke="#1f4e79" stroke-opacity="0.18" /><text x="698.0" y="819.3" text-anchor="start" font-size="12" font-family="Helvetica, Arial, sans-serif" font-weight="700" fill="#1f4e79">121</text>
<rect x="690.0" y="717.0" width="39.0" height="24" rx="8" fill="#ffffff" fill-opacity="0.92" stroke="#d97706" stroke-opacity="0.18" /><text x="698.0" y="734.0" text-anchor="start" font-size="12" font-family="Helvetica, Arial, sans-serif" font-weight="700" fill="#d97706">279</text>
<rect x="690.0" y="890.7" width="48.0" height="24" rx="8" fill="#ffffff" fill-opacity="0.92" stroke="#2b8a3e" stroke-opacity="0.18" /><text x="698.0" y="907.7" text-anchor="start" font-size="12" font-family="Helvetica, Arial, sans-serif" font-weight="700" fill="#2b8a3e">8.00</text>
<rect x="820" y="650" width="680" height="360" rx="18" fill="#f8fafc" stroke="#e4e7ec" />
<text x="844" y="674" font-size="24" font-family="Helvetica, Arial, sans-serif" fill="#101828" font-weight="700">United Kingdom</text>
<line x1="878" y1="686.0" x2="1480" y2="686.0" stroke="#d9dde3" stroke-width="1" />
<text x="868" y="691.0" text-anchor="end" font-size="13" font-family="Helvetica, Arial, sans-serif" fill="#667085">700</text>
<text x="1488" y="691.0" font-size="13" font-family="Helvetica, Arial, sans-serif" fill="#667085">100</text>
<line x1="878" y1="752.5" x2="1480" y2="752.5" stroke="#d9dde3" stroke-width="1" />
<text x="868" y="757.5" text-anchor="end" font-size="13" font-family="Helvetica, Arial, sans-serif" fill="#667085">525</text>
<text x="1488" y="757.5" font-size="13" font-family="Helvetica, Arial, sans-serif" fill="#667085">75.0</text>
<line x1="878" y1="819.0" x2="1480" y2="819.0" stroke="#d9dde3" stroke-width="1" />
<text x="868" y="824.0" text-anchor="end" font-size="13" font-family="Helvetica, Arial, sans-serif" fill="#667085">350</text>
<text x="1488" y="824.0" font-size="13" font-family="Helvetica, Arial, sans-serif" fill="#667085">50.0</text>
<line x1="878" y1="885.5" x2="1480" y2="885.5" stroke="#d9dde3" stroke-width="1" />
<text x="868" y="890.5" text-anchor="end" font-size="13" font-family="Helvetica, Arial, sans-serif" fill="#667085">175</text>
<text x="1488" y="890.5" font-size="13" font-family="Helvetica, Arial, sans-serif" fill="#667085">25.0</text>
<line x1="878" y1="952.0" x2="1480" y2="952.0" stroke="#d9dde3" stroke-width="1" />
<text x="868" y="957.0" text-anchor="end" font-size="13" font-family="Helvetica, Arial, sans-serif" fill="#667085">0.00</text>
<text x="1488" y="957.0" font-size="13" font-family="Helvetica, Arial, sans-serif" fill="#667085">0.00</text>
<line x1="878.0" y1="686" x2="878.0" y2="952" stroke="#eef2f6" stroke-width="1" />
<text x="878.0" y="976" text-anchor="middle" font-size="13" font-family="Helvetica, Arial, sans-serif" fill="#667085">2019</text>
<line x1="1000.4" y1="686" x2="1000.4" y2="952" stroke="#eef2f6" stroke-width="1" />
<text x="1000.4" y="976" text-anchor="middle" font-size="13" font-family="Helvetica, Arial, sans-serif" fill="#667085">2020</text>
<line x1="1122.9" y1="686" x2="1122.9" y2="952" stroke="#eef2f6" stroke-width="1" />
<text x="1122.9" y="976" text-anchor="middle" font-size="13" font-family="Helvetica, Arial, sans-serif" fill="#667085">2021</text>
<line x1="1245.3" y1="686" x2="1245.3" y2="952" stroke="#eef2f6" stroke-width="1" />
<text x="1245.3" y="976" text-anchor="middle" font-size="13" font-family="Helvetica, Arial, sans-serif" fill="#667085">2022</text>
<line x1="1367.8" y1="686" x2="1367.8" y2="952" stroke="#eef2f6" stroke-width="1" />
<text x="1367.8" y="976" text-anchor="middle" font-size="13" font-family="Helvetica, Arial, sans-serif" fill="#667085">2023</text>
<polyline fill="none" stroke="#d97706" stroke-width="4" stroke-linejoin="round" stroke-linecap="round" points="878.0,914.0 888.2,914.0 898.4,914.0 908.6,914.0 918.8,914.0 929.0,914.0 939.2,914.0 949.4,914.0 959.6,914.0 969.8,914.0 980.0,914.0 990.2,914.0 1000.4,905.2 1010.6,905.2 1020.8,905.2 1031.1,905.2 1041.3,905.2 1051.5,905.2 1061.7,905.2 1071.9,905.2 1082.1,905.2 1092.3,905.2 1102.5,905.2 1112.7,905.2 1122.9,892.1 1133.1,892.1 1143.3,892.1 1153.5,892.1 1163.7,892.1 1173.9,892.1 1184.1,892.1 1194.3,892.1 1204.5,892.1 1214.7,892.1 1224.9,892.1 1235.1,892.1 1245.3,871.7 1255.5,871.7 1265.7,871.7 1275.9,871.7 1286.1,871.7 1296.3,871.7 1306.5,871.7 1316.7,871.7 1326.9,871.7 1337.2,871.7 1347.4,871.7 1357.6,871.7 1367.8,842.7 1378.0,842.7 1388.2,842.7 1398.4,842.7 1408.6,842.7 1418.8,842.7 1429.0,842.7 1439.2,842.7 1449.4,842.7 1459.6,842.7 1469.8,842.7 1480.0,842.7" />
<polyline fill="none" stroke="#1f4e79" stroke-width="5" stroke-linejoin="round" stroke-linecap="round" points="878.0,914.0 888.2,914.0 898.4,914.0 908.6,914.0 918.8,914.0 929.0,914.0 939.2,914.0 949.4,914.0 959.6,914.0 969.8,914.0 980.0,914.0 990.2,914.0 1000.4,863.6 1010.6,863.6 1020.8,863.6 1031.1,863.6 1041.3,863.6 1051.5,863.6 1061.7,863.6 1071.9,863.6 1082.1,863.6 1092.3,863.6 1102.5,863.6 1112.7,863.6 1122.9,797.9 1133.1,797.9 1143.3,797.9 1153.5,797.9 1163.7,797.9 1173.9,797.9 1184.1,797.9 1194.3,797.9 1204.5,797.9 1214.7,797.9 1224.9,797.9 1235.1,797.9 1245.3,764.3 1255.5,764.3 1265.7,764.3 1275.9,764.3 1286.1,764.3 1296.3,764.3 1306.5,764.3 1316.7,764.3 1326.9,764.3 1337.2,764.3 1347.4,764.3 1357.6,764.3 1367.8,709.5 1378.0,709.5 1388.2,709.5 1398.4,709.5 1408.6,709.5 1418.8,709.5 1429.0,709.5 1439.2,709.5 1449.4,709.5 1459.6,709.5 1469.8,709.5 1480.0,709.5" />
<polyline fill="none" stroke="#2b8a3e" stroke-width="4" stroke-linejoin="round" stroke-linecap="round" stroke-dasharray="10 8" points="878.0,769.1 888.2,770.5 898.4,757.8 908.6,761.1 918.8,779.8 929.0,728.6 939.2,736.5 949.4,753.2 959.6,743.5 969.8,725.9 980.0,721.9 990.2,762.7 1000.4,754.5 1010.6,719.2 1020.8,800.4 1031.1,854.2 1041.3,820.1 1051.5,793.1 1061.7,778.4 1071.9,788.7 1082.1,769.8 1092.3,773.1 1102.5,737.1 1112.7,811.6 1122.9,836.6 1133.1,820.3 1143.3,832.3 1153.5,825.6 1163.7,824.3 1173.9,822.3 1184.1,827.6 1194.3,826.4 1204.5,805.0 1214.7,787.6 1224.9,782.4 1235.1,833.9 1245.3,820.6 1255.5,809.7 1265.7,790.4 1275.9,815.7 1286.1,829.1 1296.3,811.0 1306.5,831.8 1316.7,831.0 1326.9,836.3 1337.2,835.5 1347.4,823.0 1357.6,853.6 1367.8,846.1 1378.0,846.9 1388.2,843.6 1398.4,853.0 1408.6,847.6 1418.8,854.2 1429.0,847.2 1439.2,856.2 1449.4,835.0 1459.6,831.2 1469.8,844.3 1480.0,851.8" />
<circle cx="1480.0" cy="709.5" r="4.5" fill="#1f4e79" />
<circle cx="1480.0" cy="842.7" r="4.5" fill="#d97706" />
<circle cx="1480.0" cy="851.8" r="4.5" fill="#2b8a3e" />
<text x="878" y="702" font-size="13" font-family="Helvetica, Arial, sans-serif" fill="#667085">Left axis: indexed sales/chargers</text>
<text x="1475" y="678" text-anchor="end" font-size="13" font-family="Helvetica, Arial, sans-serif" fill="#667085">Right axis: Google Trends score</text>
<text x="844" y="998" font-size="12" font-family="Helvetica, Arial, sans-serif" fill="#667085">2019-01 sales 6,269 → 2023-12 sales 40,000; chargers 21,200 → 61,000</text>
<rect x="1410.0" y="686.0" width="39.0" height="24" rx="8" fill="#ffffff" fill-opacity="0.92" stroke="#1f4e79" stroke-opacity="0.18" /><text x="1418.0" y="703.0" text-anchor="start" font-size="12" font-family="Helvetica, Arial, sans-serif" font-weight="700" fill="#1f4e79">638</text>
<rect x="1410.0" y="854.7" width="39.0" height="24" rx="8" fill="#ffffff" fill-opacity="0.92" stroke="#d97706" stroke-opacity="0.18" /><text x="1418.0" y="871.7" text-anchor="start" font-size="12" font-family="Helvetica, Arial, sans-serif" font-weight="700" fill="#d97706">288</text>
<rect x="1410.0" y="811.8" width="48.0" height="24" rx="8" fill="#ffffff" fill-opacity="0.92" stroke="#2b8a3e" stroke-opacity="0.18" /><text x="1418.0" y="828.8" text-anchor="start" font-size="12" font-family="Helvetica, Arial, sans-serif" font-weight="700" fill="#2b8a3e">37.7</text>
<text x="100" y="1175" font-size="13" font-family="Helvetica, Arial, sans-serif" fill="#667085">Figure built in Python from ev_market_master.csv. Data coverage and source list were taken from the dataset README and its cited sources.</text>
</svg>